<svg xmlns="http://www.w3.org/2000/svg" xmlns:xlink="http://www.w3.org/1999/xlink" viewBox="0 0 131 24" width="131" height="24" preserveAspectRatio="xMidYMid meet" style="width: 100%; height: 100%; transform: translate3d(0px, 0px, 0px); content-visibility: visible;"><defs><clipPath id="__lottie_element_169"><rect width="131" height="24" x="0" y="0"></rect></clipPath></defs><g clip-path="url(#__lottie_element_169)"><g transform="matrix(0.33500000834465027,0,0,0.33500000834465027,-5.807501792907715,-5.510000228881836)" opacity="1" style="display: block;"><g opacity="1" transform="matrix(1,0,0,1,47.768001556396484,51.88399887084961)"><path stroke-linecap="round" stroke-linejoin="round" fill-opacity="0" stroke="rgb(0,0,0)" stroke-opacity="1" stroke-width="9" d=" M25.26799964904785,-29.382999420166016 C25.26799964904785,-29.382999420166016 25.26799964904785,3.943000078201294 25.26799964904785,3.943000078201294 C25.26799964904785,18.198999404907227 13.517000198364258,29.382999420166016 -0.0010000000474974513,29.382999420166016 C-13.517999649047852,29.382999420166016 -25.26799964904785,18.198999404907227 -25.26799964904785,3.943000078201294 C-25.26799964904785,3.943000078201294 -25.26799964904785,-29.382999420166016 -25.26799964904785,-29.382999420166016"></path></g></g><g transform="matrix(0.33500000834465027,0,0,0.33500000834465027,17.726247787475586,-5.510000228881836)" opacity="1" style="display: block;"><g opacity="1" transform="matrix(1,0,0,1,47.766998291015625,51.88399887084961)"><path stroke-linecap="round" stroke-linejoin="round" fill-opacity="0" stroke="rgb(0,0,0)" stroke-opacity="1" stroke-width="9" d=" M-25.26799964904785,29.382999420166016 C-25.26799964904785,29.382999420166016 -25.26799964904785,-3.943000078201294 -25.26799964904785,-3.943000078201294 C-25.26799964904785,-18.198999404907227 -13.517000198364258,-29.382999420166016 0.0010000000474974513,-29.382999420166016 C13.517999649047852,-29.382999420166016 25.26799964904785,-18.198999404907227 25.26799964904785,-3.943000078201294 C25.26799964904785,-3.943000078201294 25.26799964904785,29.382999420166016 25.26799964904785,29.382999420166016"></path></g></g><g transform="matrix(0.33500000834465027,0,0,0.33500000834465027,40.75751495361328,-5.510014533996582)" opacity="1" style="display: block;"><g opacity="1" transform="matrix(1,0,0,1,51.49800109863281,51.90299987792969)"><path stroke-linecap="round" stroke-linejoin="round" fill-opacity="0" stroke="rgb(0,0,0)" stroke-opacity="1" stroke-width="9" d=" M8.003000259399414,-28.743000030517578 C5.577000141143799,-29.176000595092773 2.9230000972747803,-29.402000427246094 0.028999999165534973,-29.402000427246094 C-16.00200080871582,-29.402000427246094 -28.99799919128418,-16.076000213623047 -28.99799919128418,-0.04399999976158142 C-28.99799919128418,15.987000465393066 -16.00200080871582,29.402000427246094 0.028999999165534973,29.402000427246094 C14.994999885559082,29.402000427246094 25.451000213623047,19.8700008392334 28.99799919128418,7.493000030517578"></path></g></g><g transform="matrix(0.33500000834465027,0,0,0.33500000834465027,72.66625213623047,-5.510000228881836)" opacity="1" style="display: block;"><g opacity="1" transform="matrix(1,0,0,1,0,0)"><path stroke-linecap="round" stroke-linejoin="round" fill-opacity="0" stroke="rgb(0,0,0)" stroke-opacity="1" stroke-width="9" d=" M22.5,22.5 C22.5,22.5 22.5,81.26699829101562 22.5,81.26699829101562"></path></g></g><g style="display: block;" transform="matrix(0.33500000834465027,0,0,0.33500000834465027,79.03125,-5.510000228881836)" opacity="1"><g opacity="1" transform="matrix(1,0,0,1,47.766998291015625,51.88399887084961)"><path stroke-linecap="round" stroke-linejoin="round" fill-opacity="0" stroke="rgb(0,0,0)" stroke-opacity="1" stroke-width="9" d=" M-25.267000198364258,29.382999420166016 C-25.267000198364258,29.382999420166016 -25.267000198364258,-3.943000078201294 -25.267000198364258,-3.943000078201294 C-25.267000198364258,-18.198999404907227 -13.517999649047852,-29.382999420166016 0,-29.382999420166016 C13.517000198364258,-29.382999420166016 25.267000198364258,-18.198999404907227 25.267000198364258,-3.943000078201294 C25.267000198364258,-3.943000078201294 25.267000198364258,29.382999420166016 25.267000198364258,29.382999420166016"></path></g></g><g style="display: block;" transform="matrix(0.33500000834465027,0,0,0.33500000834465027,102.39749908447266,-5.510000228881836)" opacity="1"><g opacity="1" transform="matrix(1,0,0,1,51.49800109863281,51.902000427246094)"><path stroke-linecap="round" stroke-linejoin="round" fill-opacity="0" stroke="rgb(0,0,0)" stroke-opacity="1" stroke-width="9" d=" M-8.003000259399414,28.743000030517578 C-5.576000213623047,29.176000595092773 -2.9230000972747803,29.402000427246094 -0.028999999165534973,29.402000427246094 C16.00200080871582,29.402000427246094 28.999000549316406,16.07699966430664 28.999000549316406,0.04500000178813934 C28.999000549316406,-15.987000465393066 16.00200080871582,-29.402000427246094 -0.028999999165534973,-29.402000427246094 C-14.994999885559082,-29.402000427246094 -25.45199966430664,-19.871000289916992 -28.999000549316406,-7.493000030517578"></path></g></g></g></svg>